<?xml version="1.0" encoding="UTF-8" standalone="no"?>
<!-- Created with Inkscape (http://www.inkscape.org/) -->

<svg
   width="14.519486mm"
   height="10.209616mm"
   viewBox="0 0 14.519486 10.209616"
   version="1.1"
   id="svg1"
   xml:space="preserve"
   xmlns:inkscape="http://www.inkscape.org/namespaces/inkscape"
   xmlns:sodipodi="http://sodipodi.sourceforge.net/DTD/sodipodi-0.dtd"
   xmlns="http://www.w3.org/2000/svg"
   xmlns:svg="http://www.w3.org/2000/svg"><sodipodi:namedview
     id="namedview1"
     pagecolor="#ffffff"
     bordercolor="#000000"
     borderopacity="0.25"
     inkscape:showpageshadow="2"
     inkscape:pageopacity="0.0"
     inkscape:pagecheckerboard="0"
     inkscape:deskcolor="#d1d1d1"
     inkscape:document-units="mm" /><defs
     id="defs1" /><g
     inkscape:label="Layer 1"
     inkscape:groupmode="layer"
     id="layer1"
     transform="translate(-97.881235,-143.39518)"><path
       class="st0"
       d="m 110.43621,147.08944 c -0.0761,-0.55232 -0.38034,-1.03188 -0.92935,-1.46513 l -0.3175,-0.21498 -0.21167,0.32081 c -0.2712,0.41342 -0.4068,0.98888 -0.3638,1.5412 0.0199,0.19182 0.0827,0.54239 0.27781,0.84336 -0.19513,0.10914 -0.58208,0.25466 -1.09802,0.24474 h -9.85573 l -0.01984,0.11576 c -0.0926,0.55231 -0.0926,2.28202 1.015339,3.60825 0.843359,1.00873 2.103441,1.52136 3.750471,1.52136 3.57187,0 6.21109,-1.66358 7.45133,-4.69305 0.48617,0.01 1.53458,0.004 2.07367,-1.0385 0.0132,-0.0231 0.0463,-0.086 0.1389,-0.28442 l 0.0529,-0.10914 -0.30096,-0.20505 c -0.33073,-0.21497 -1.08149,-0.29766 -1.66357,-0.18521 z m -4.61698,-3.69425 h -1.49821 v 1.37914 h 1.49821 z m 0,1.65695 h -1.49821 v 1.37914 h 1.49821 z m -1.77271,0 h -1.49821 v 1.37914 h 1.49821 z m -1.7694,0 h -1.49821 v 1.37914 h 1.49821 z m -1.77271,1.65696 h -1.498204 v 1.37914 h 1.498204 z m 1.77271,0 h -1.49821 v 1.37914 h 1.49821 z m 1.7694,0 h -1.49821 v 1.37914 h 1.49821 z m 1.77271,0 h -1.49821 v 1.37914 h 1.49821 z m 1.77271,0 h -1.49821 v 1.37914 h 1.49821 z"
       id="path1"
       style="stroke-width:0.0330728" /></g><style
     type="text/css"
     id="style1">&#10;	.st0{fill:#1D63ED;}&#10;</style></svg>
