<?xml version="1.0" encoding="UTF-8"?>
<svg xmlns="http://www.w3.org/2000/svg" xmlns:xlink="http://www.w3.org/1999/xlink" width="150" height="105.580866" viewBox="0 0 150 105.580866">
<path fill-rule="nonzero" fill="rgb(11.372549%, 38.823529%, 92.941176%)" fill-opacity="1" d="M 129.703125 38.167969 C 128.917969 32.460938 125.773438 27.503906 120.101562 23.03125 L 116.824219 20.808594 L 114.636719 24.121094 C 111.832031 28.394531 110.433594 34.339844 110.878906 40.046875 C 111.082031 42.027344 111.730469 45.648438 113.746094 48.757812 C 111.730469 49.886719 107.734375 51.390625 102.402344 51.285156 L 0.582031 51.285156 L 0.375 52.484375 C -0.582031 58.1875 -0.582031 76.058594 10.867188 89.761719 C 19.578125 100.183594 32.597656 105.476562 49.613281 105.476562 C 86.515625 105.476562 113.78125 88.292969 126.59375 56.992188 C 131.617188 57.09375 142.449219 57.027344 148.019531 46.265625 C 148.15625 46.023438 148.496094 45.375 149.453125 43.324219 L 150 42.199219 L 146.890625 40.078125 C 143.472656 37.859375 135.71875 37.003906 129.703125 38.167969 Z M 82.003906 0 L 66.527344 0 L 66.527344 14.25 L 82.003906 14.25 Z M 82.003906 17.117188 L 66.527344 17.117188 L 66.527344 31.367188 L 82.003906 31.367188 Z M 63.691406 17.117188 L 48.210938 17.117188 L 48.210938 31.367188 L 63.691406 31.367188 Z M 45.410156 17.117188 L 29.933594 17.117188 L 29.933594 31.367188 L 45.410156 31.367188 Z M 27.09375 34.238281 L 11.617188 34.238281 L 11.617188 48.484375 L 27.09375 48.484375 Z M 45.410156 34.238281 L 29.933594 34.238281 L 29.933594 48.484375 L 45.410156 48.484375 Z M 63.691406 34.238281 L 48.210938 34.238281 L 48.210938 48.484375 L 63.691406 48.484375 Z M 82.003906 34.238281 L 66.527344 34.238281 L 66.527344 48.484375 L 82.003906 48.484375 Z M 100.320312 34.238281 L 84.839844 34.238281 L 84.839844 48.484375 L 100.320312 48.484375 Z M 100.320312 34.238281 "/>
</svg>
